<?xml version="1.0" encoding="UTF-8" standalone="no"?>
<!DOCTYPE svg PUBLIC "-//W3C//DTD SVG 1.1//EN"
 "http://www.w3.org/Graphics/SVG/1.1/DTD/svg11.dtd">
<!-- Generated by graphviz version 2.36.0 (20140111.2315)
 -->
<!-- Title: controllers_diagram Pages: 1 -->
<svg width="427pt" height="412pt"
 viewBox="0.00 0.00 427.00 412.00" xmlns="http://www.w3.org/2000/svg" xmlns:xlink="http://www.w3.org/1999/xlink">
<g id="graph0" class="graph" transform="scale(1 1) rotate(0) translate(4 408)">
<title>controllers_diagram</title>
<polygon fill="none" stroke="none" points="-4,4 -4,-408 423,-408 423,4 -4,4"/>
<!-- _diagram_info -->
<g id="node1" class="node"><title>_diagram_info</title>
<text text-anchor="start" x="64" y="-217.6" font-family="Times,serif" font-size="13.00">Controllers diagram</text>
<text text-anchor="start" x="64" y="-203.6" font-family="Times,serif" font-size="13.00">Date: Mar 16 2017 &#45; 01:18</text>
<text text-anchor="start" x="64" y="-189.6" font-family="Times,serif" font-size="13.00">Migration version: 20170315124804</text>
<text text-anchor="start" x="64" y="-175.6" font-family="Times,serif" font-size="13.00">Generated by RailRoady 1.5.2</text>
<text text-anchor="start" x="64" y="-161.6" font-family="Times,serif" font-size="13.00">http://railroady.prestonlee.com</text>
</g>
<!-- ApplicationController -->
<g id="node2" class="node"><title>ApplicationController</title>
<path fill="none" stroke="black" d="M250,-266.5C250,-266.5 362,-266.5 362,-266.5 368,-266.5 374,-272.5 374,-278.5 374,-278.5 374,-363.5 374,-363.5 374,-369.5 368,-375.5 362,-375.5 362,-375.5 250,-375.5 250,-375.5 244,-375.5 238,-369.5 238,-363.5 238,-363.5 238,-278.5 238,-278.5 238,-272.5 244,-266.5 250,-266.5"/>
<text text-anchor="middle" x="306" y="-360.3" font-family="Times,serif" font-size="14.00">ApplicationController</text>
<polyline fill="none" stroke="black" points="238,-352.5 374,-352.5 "/>
<polyline fill="none" stroke="black" points="238,-328.5 374,-328.5 "/>
<polyline fill="none" stroke="black" points="238,-304.5 374,-304.5 "/>
<text text-anchor="start" x="246" y="-289.3" font-family="Times,serif" font-size="14.00">_layout</text>
<text text-anchor="start" x="246" y="-274.3" font-family="Times,serif" font-size="14.00">not_authenticated</text>
</g>
<!-- SessionsController -->
<g id="node3" class="node"><title>SessionsController</title>
<path fill="none" stroke="black" d="M96,-280.5C96,-280.5 191,-280.5 191,-280.5 197,-280.5 203,-286.5 203,-292.5 203,-292.5 203,-391.5 203,-391.5 203,-397.5 197,-403.5 191,-403.5 191,-403.5 96,-403.5 96,-403.5 90,-403.5 84,-397.5 84,-391.5 84,-391.5 84,-292.5 84,-292.5 84,-286.5 90,-280.5 96,-280.5"/>
<text text-anchor="middle" x="143.5" y="-388.3" font-family="Times,serif" font-size="14.00">SessionsController</text>
<polyline fill="none" stroke="black" points="84,-380.5 203,-380.5 "/>
<text text-anchor="start" x="92" y="-365.3" font-family="Times,serif" font-size="14.00">create</text>
<text text-anchor="start" x="92" y="-350.3" font-family="Times,serif" font-size="14.00">destroy</text>
<text text-anchor="start" x="92" y="-335.3" font-family="Times,serif" font-size="14.00">new</text>
<polyline fill="none" stroke="black" points="84,-327.5 203,-327.5 "/>
<polyline fill="none" stroke="black" points="84,-303.5 203,-303.5 "/>
<text text-anchor="start" x="92" y="-288.3" font-family="Times,serif" font-size="14.00">_layout</text>
</g>
<!-- WelcomeController -->
<g id="node4" class="node"><title>WelcomeController</title>
<path fill="none" stroke="black" d="M306,-70.5C306,-70.5 407,-70.5 407,-70.5 413,-70.5 419,-76.5 419,-82.5 419,-82.5 419,-151.5 419,-151.5 419,-157.5 413,-163.5 407,-163.5 407,-163.5 306,-163.5 306,-163.5 300,-163.5 294,-157.5 294,-151.5 294,-151.5 294,-82.5 294,-82.5 294,-76.5 300,-70.5 306,-70.5"/>
<text text-anchor="middle" x="356.5" y="-148.3" font-family="Times,serif" font-size="14.00">WelcomeController</text>
<polyline fill="none" stroke="black" points="294,-140.5 419,-140.5 "/>
<text text-anchor="start" x="302" y="-125.3" font-family="Times,serif" font-size="14.00">welcome</text>
<polyline fill="none" stroke="black" points="294,-117.5 419,-117.5 "/>
<polyline fill="none" stroke="black" points="294,-93.5 419,-93.5 "/>
<text text-anchor="start" x="302" y="-78.3" font-family="Times,serif" font-size="14.00">_layout</text>
</g>
<!-- WatchingsController -->
<g id="node5" class="node"><title>WatchingsController</title>
<path fill="none" stroke="black" d="M12,-28.5C12,-28.5 119,-28.5 119,-28.5 125,-28.5 131,-34.5 131,-40.5 131,-40.5 131,-109.5 131,-109.5 131,-115.5 125,-121.5 119,-121.5 119,-121.5 12,-121.5 12,-121.5 6,-121.5 -2.84217e-14,-115.5 -2.84217e-14,-109.5 -2.84217e-14,-109.5 -2.84217e-14,-40.5 -2.84217e-14,-40.5 -2.84217e-14,-34.5 6,-28.5 12,-28.5"/>
<text text-anchor="middle" x="65.5" y="-106.3" font-family="Times,serif" font-size="14.00">WatchingsController</text>
<polyline fill="none" stroke="black" points="-2.84217e-14,-98.5 131,-98.5 "/>
<text text-anchor="start" x="8" y="-83.3" font-family="Times,serif" font-size="14.00">index</text>
<polyline fill="none" stroke="black" points="-2.84217e-14,-75.5 131,-75.5 "/>
<polyline fill="none" stroke="black" points="-2.84217e-14,-51.5 131,-51.5 "/>
<text text-anchor="start" x="8" y="-36.3" font-family="Times,serif" font-size="14.00">_layout</text>
</g>
<!-- UsersController -->
<g id="node6" class="node"><title>UsersController</title>
<path fill="none" stroke="black" d="M166,-0.5C166,-0.5 245,-0.5 245,-0.5 251,-0.5 257,-6.5 257,-12.5 257,-12.5 257,-111.5 257,-111.5 257,-117.5 251,-123.5 245,-123.5 245,-123.5 166,-123.5 166,-123.5 160,-123.5 154,-117.5 154,-111.5 154,-111.5 154,-12.5 154,-12.5 154,-6.5 160,-0.5 166,-0.5"/>
<text text-anchor="middle" x="205.5" y="-108.3" font-family="Times,serif" font-size="14.00">UsersController</text>
<polyline fill="none" stroke="black" points="154,-100.5 257,-100.5 "/>
<text text-anchor="start" x="162" y="-85.3" font-family="Times,serif" font-size="14.00">create</text>
<text text-anchor="start" x="162" y="-70.3" font-family="Times,serif" font-size="14.00">new</text>
<polyline fill="none" stroke="black" points="154,-62.5 257,-62.5 "/>
<polyline fill="none" stroke="black" points="154,-38.5 257,-38.5 "/>
<text text-anchor="start" x="162" y="-23.3" font-family="Times,serif" font-size="14.00">_layout</text>
<text text-anchor="start" x="162" y="-8.3" font-family="Times,serif" font-size="14.00">user_params</text>
</g>
</g>
</svg>
