<?xml version="1.0" encoding="UTF-8" standalone="no"?>
<!DOCTYPE svg PUBLIC "-//W3C//DTD SVG 1.1//EN"
 "http://www.w3.org/Graphics/SVG/1.1/DTD/svg11.dtd">
<!-- Generated by graphviz version 2.36.0 (20140111.2315)
 -->
<!-- Title: models_diagram Pages: 1 -->
<svg width="497pt" height="248pt"
 viewBox="0.00 0.00 497.00 248.00" xmlns="http://www.w3.org/2000/svg" xmlns:xlink="http://www.w3.org/1999/xlink">
<g id="graph0" class="graph" transform="scale(1 1) rotate(0) translate(4 244)">
<title>models_diagram</title>
<polygon fill="none" stroke="none" points="-4,4 -4,-244 493,-244 493,4 -4,4"/>
<!-- _diagram_info -->
<g id="node1" class="node"><title>_diagram_info</title>
<text text-anchor="start" x="31" y="-225.6" font-family="Times,serif" font-size="13.00">Models diagram</text>
<text text-anchor="start" x="31" y="-211.6" font-family="Times,serif" font-size="13.00">Date: Mar 16 2017 &#45; 01:18</text>
<text text-anchor="start" x="31" y="-197.6" font-family="Times,serif" font-size="13.00">Migration version: 20170315124804</text>
<text text-anchor="start" x="31" y="-183.6" font-family="Times,serif" font-size="13.00">Generated by RailRoady 1.5.2</text>
<text text-anchor="start" x="31" y="-169.6" font-family="Times,serif" font-size="13.00">http://railroady.prestonlee.com</text>
</g>
<!-- Reading -->
<g id="node2" class="node"><title>Reading</title>
<ellipse fill="none" stroke="black" cx="40" cy="-92" rx="39.9464" ry="18"/>
<text text-anchor="middle" x="40" y="-88.3" font-family="Times,serif" font-size="14.00">Reading</text>
</g>
<!-- Watching -->
<g id="node3" class="node"><title>Watching</title>
<ellipse fill="none" stroke="black" cx="144" cy="-92" rx="45.244" ry="18"/>
<text text-anchor="middle" x="144" y="-88.3" font-family="Times,serif" font-size="14.00">Watching</text>
</g>
<!-- User -->
<g id="node4" class="node"><title>User</title>
<ellipse fill="none" stroke="black" cx="282" cy="-201" rx="26.949" ry="18"/>
<text text-anchor="middle" x="282" y="-197.3" font-family="Times,serif" font-size="14.00">User</text>
</g>
<!-- User&#45;&gt;Reading -->
<g id="edge4" class="edge"><title>User&#45;&gt;Reading</title>
<path fill="none" stroke="#5d5c69" d="M265.256,-178.367C259.469,-172.214 252.527,-166.083 245,-162 208.76,-142.343 193.288,-156.497 154,-144 126.339,-135.201 96.4324,-121.658 74.1934,-110.738"/>
<ellipse fill="none" stroke="#5d5c69" cx="267.988" cy="-181.456" rx="4.00002" ry="4.00002"/>
<polygon fill="#5d5c69" stroke="#5d5c69" points="74.1124,-110.698 67.1666,-102.213 69.6366,-108.469 65.1608,-106.241 65.1608,-106.241 65.1608,-106.241 69.6366,-108.469 63.1549,-110.269 74.1124,-110.698 74.1124,-110.698"/>
</g>
<!-- User&#45;&gt;Watching -->
<g id="edge5" class="edge"><title>User&#45;&gt;Watching</title>
<path fill="none" stroke="#454557" d="M265.146,-178.564C259.354,-172.421 252.437,-166.245 245,-162 215.604,-145.221 197.714,-164.786 171,-144 162.987,-137.765 157.087,-128.474 152.883,-119.524"/>
<ellipse fill="none" stroke="#454557" cx="267.882" cy="-181.637" rx="4.00002" ry="4.00002"/>
<polygon fill="#454557" stroke="#454557" points="152.806,-119.34 153.121,-108.378 150.886,-114.723 148.966,-110.106 148.966,-110.106 148.966,-110.106 150.886,-114.723 144.811,-111.834 152.806,-119.34 152.806,-119.34"/>
</g>
<!-- Film -->
<g id="node5" class="node"><title>Film</title>
<ellipse fill="none" stroke="black" cx="282" cy="-92" rx="27.4223" ry="18"/>
<text text-anchor="middle" x="282" y="-88.3" font-family="Times,serif" font-size="14.00">Film</text>
</g>
<!-- User&#45;&gt;Film -->
<g id="edge3" class="edge"><title>User&#45;&gt;Film</title>
<path fill="none" stroke="#aea732" d="M263.347,-176.865C257.929,-171.335 251.661,-165.908 245,-162 218.406,-146.397 196.762,-168.468 178,-144 173.673,-138.357 173.85,-133.775 178,-128 193.01,-107.112 221.117,-98.5211 244.33,-95.0667"/>
<polygon fill="#aea732" stroke="#aea732" points="263.425,-176.95 266.84,-187.371 266.794,-180.644 270.164,-184.338 270.164,-184.338 270.164,-184.338 266.794,-180.644 273.489,-181.305 263.425,-176.95 263.425,-176.95"/>
<polygon fill="#aea732" stroke="#aea732" points="244.33,-95.0668 254.804,-98.3138 249.293,-94.4571 254.255,-93.8474 254.255,-93.8474 254.255,-93.8474 249.293,-94.4571 253.707,-89.381 244.33,-95.0668 244.33,-95.0668"/>
<text text-anchor="middle" x="219" y="-132.3" font-family="Times,serif" font-size="14.00">intended_films</text>
</g>
<!-- User&#45;&gt;Film -->
<g id="edge7" class="edge"><title>User&#45;&gt;Film</title>
<path fill="none" stroke="#70e8d6" d="M282,-172.611C282,-156.613 282,-136.489 282,-120.476"/>
<polygon fill="#70e8d6" stroke="#70e8d6" points="282,-172.809 277.5,-182.809 282,-177.809 282,-182.809 282,-182.809 282,-182.809 282,-177.809 286.5,-182.809 282,-172.809 282,-172.809"/>
<polygon fill="#70e8d6" stroke="#70e8d6" points="282,-120.149 286.5,-110.149 282,-115.149 282,-110.149 282,-110.149 282,-110.149 282,-115.149 277.5,-110.149 282,-120.149 282,-120.149"/>
<text text-anchor="middle" x="305" y="-132.3" font-family="Times,serif" font-size="14.00">watched</text>
</g>
<!-- Intent -->
<g id="node6" class="node"><title>Intent</title>
<ellipse fill="none" stroke="black" cx="343" cy="-18" rx="31.2965" ry="18"/>
<text text-anchor="middle" x="343" y="-14.3" font-family="Times,serif" font-size="14.00">Intent</text>
</g>
<!-- User&#45;&gt;Intent -->
<g id="edge1" class="edge"><title>User&#45;&gt;Intent</title>
<path fill="none" stroke="#673fb5" d="M303.607,-180.2C313.017,-170.286 323.203,-157.526 329,-144 342.473,-112.563 344.7,-72.8035 344.4,-46.6726"/>
<ellipse fill="none" stroke="#673fb5" cx="300.704" cy="-183.14" rx="4.00002" ry="4.00002"/>
<polygon fill="#673fb5" stroke="#673fb5" points="344.392,-46.3689 348.64,-36.2592 344.267,-41.3704 344.141,-36.372 344.141,-36.372 344.141,-36.372 344.267,-41.3704 339.643,-36.4849 344.392,-46.3689 344.392,-46.3689"/>
</g>
<!-- Book -->
<g id="node7" class="node"><title>Book</title>
<ellipse fill="none" stroke="black" cx="401" cy="-92" rx="29.3479" ry="18"/>
<text text-anchor="middle" x="401" y="-88.3" font-family="Times,serif" font-size="14.00">Book</text>
</g>
<!-- User&#45;&gt;Book -->
<g id="edge2" class="edge"><title>User&#45;&gt;Book</title>
<path fill="none" stroke="#0bb44a" d="M301.899,-177.149C307.152,-171.818 313.031,-166.415 319,-162 333.063,-151.598 340.081,-154.594 354,-144 364.374,-136.103 374.381,-125.763 382.475,-116.458"/>
<polygon fill="#0bb44a" stroke="#0bb44a" points="301.565,-177.503 291.434,-181.7 298.138,-181.144 294.711,-184.785 294.711,-184.785 294.711,-184.785 298.138,-181.144 297.987,-187.869 301.565,-177.503 301.565,-177.503"/>
<polygon fill="#0bb44a" stroke="#0bb44a" points="382.619,-116.288 392.501,-111.533 385.838,-112.462 389.057,-108.636 389.057,-108.636 389.057,-108.636 385.838,-112.462 385.614,-105.739 382.619,-116.288 382.619,-116.288"/>
<text text-anchor="middle" x="414" y="-132.3" font-family="Times,serif" font-size="14.00">intended_books</text>
</g>
<!-- User&#45;&gt;Book -->
<g id="edge6" class="edge"><title>User&#45;&gt;Book</title>
<path fill="none" stroke="#54a525" d="M300.047,-176.509C305.525,-170.885 311.975,-165.502 319,-162 347.468,-147.81 439.97,-167.864 461,-144 473.563,-129.744 454.798,-115.935 435.02,-106.289"/>
<polygon fill="#54a525" stroke="#54a525" points="299.87,-176.707 289.857,-181.178 296.543,-180.44 293.216,-184.172 293.216,-184.172 293.216,-184.172 296.543,-180.44 296.576,-187.167 299.87,-176.707 299.87,-176.707"/>
<polygon fill="#54a525" stroke="#54a525" points="434.77,-106.176 427.531,-97.9388 430.219,-104.105 425.668,-102.035 425.668,-102.035 425.668,-102.035 430.219,-104.105 423.804,-106.131 434.77,-106.176 434.77,-106.176"/>
<text text-anchor="middle" x="477" y="-132.3" font-family="Times,serif" font-size="14.00">read</text>
</g>
<!-- Film&#45;&gt;Intent -->
<g id="edge8" class="edge"><title>Film&#45;&gt;Intent</title>
<path fill="none" stroke="#18e21f" d="M300.25,-69.4593C307.413,-61.0042 315.658,-51.273 322.983,-42.6261"/>
<ellipse fill="none" stroke="#18e21f" cx="297.522" cy="-72.6787" rx="4.00002" ry="4.00002"/>
<polygon fill="#18e21f" stroke="#18e21f" points="323.196,-42.3749 333.094,-37.654 326.428,-38.56 329.66,-34.7451 329.66,-34.7451 329.66,-34.7451 326.428,-38.56 326.227,-31.8362 323.196,-42.3749 323.196,-42.3749"/>
</g>
<!-- Book&#45;&gt;Intent -->
<g id="edge9" class="edge"><title>Book&#45;&gt;Intent</title>
<path fill="none" stroke="#127b69" d="M383.362,-69.105C376.561,-60.662 368.769,-50.9895 361.857,-42.4089"/>
<ellipse fill="none" stroke="#127b69" cx="385.906" cy="-72.262" rx="4.00002" ry="4.00002"/>
<polygon fill="#127b69" stroke="#127b69" points="361.834,-42.38 359.065,-31.7694 358.697,-38.4862 355.561,-34.5924 355.561,-34.5924 355.561,-34.5924 358.697,-38.4862 352.056,-37.4154 361.834,-42.38 361.834,-42.38"/>
</g>
<!-- ApplicationRecord -->
<g id="node8" class="node"><title>ApplicationRecord</title>
<ellipse fill="none" stroke="black" cx="405" cy="-201" rx="77.0154" ry="18"/>
<text text-anchor="middle" x="405" y="-197.3" font-family="Times,serif" font-size="14.00">ApplicationRecord</text>
</g>
</g>
</svg>
