<?xml version="1.0" encoding="UTF-8" standalone="no"?>
<!DOCTYPE svg PUBLIC "-//W3C//DTD SVG 1.1//EN"
 "http://www.w3.org/Graphics/SVG/1.1/DTD/svg11.dtd">
<!-- Generated by graphviz version 2.36.0 (20140111.2315)
 -->
<!-- Title: models_diagram Pages: 1 -->
<svg width="1076pt" height="494pt"
 viewBox="0.00 0.00 1076.00 494.00" xmlns="http://www.w3.org/2000/svg" xmlns:xlink="http://www.w3.org/1999/xlink">
<g id="graph0" class="graph" transform="scale(1 1) rotate(0) translate(4 490)">
<title>models_diagram</title>
<polygon fill="none" stroke="none" points="-4,4 -4,-490 1072,-490 1072,4 -4,4"/>
<!-- _diagram_info -->
<g id="node1" class="node"><title>_diagram_info</title>
<text text-anchor="start" x="389" y="-449.6" font-family="Times,serif" font-size="13.00">Models diagram</text>
<text text-anchor="start" x="389" y="-435.6" font-family="Times,serif" font-size="13.00">Date: Mar 16 2017 &#45; 01:18</text>
<text text-anchor="start" x="389" y="-421.6" font-family="Times,serif" font-size="13.00">Migration version: 20170315124804</text>
<text text-anchor="start" x="389" y="-407.6" font-family="Times,serif" font-size="13.00">Generated by RailRoady 1.5.2</text>
<text text-anchor="start" x="389" y="-393.6" font-family="Times,serif" font-size="13.00">http://railroady.prestonlee.com</text>
</g>
<!-- Reading -->
<g id="node2" class="node"><title>Reading</title>
<path fill="none" stroke="black" d="M12,-168C12,-168 232,-168 232,-168 238,-168 244,-174 244,-180 244,-180 244,-292 244,-292 244,-298 238,-304 232,-304 232,-304 12,-304 12,-304 6,-304 0,-298 0,-292 0,-292 0,-180 0,-180 0,-174 6,-168 12,-168"/>
<text text-anchor="middle" x="122" y="-288.8" font-family="Times,serif" font-size="14.00">Reading</text>
<polyline fill="none" stroke="black" points="0,-281 244,-281 "/>
<text text-anchor="start" x="8" y="-265.8" font-family="Times,serif" font-size="14.00">id :integer</text>
<text text-anchor="start" x="8" y="-250.8" font-family="Times,serif" font-size="14.00">user_id :integer</text>
<text text-anchor="start" x="8" y="-235.8" font-family="Times,serif" font-size="14.00">book_id :integer</text>
<text text-anchor="start" x="8" y="-220.8" font-family="Times,serif" font-size="14.00">start :date</text>
<text text-anchor="start" x="8" y="-205.8" font-family="Times,serif" font-size="14.00">finish :date</text>
<text text-anchor="start" x="8" y="-190.8" font-family="Times,serif" font-size="14.00">created_at :timestamp without time zone</text>
<text text-anchor="start" x="8" y="-175.8" font-family="Times,serif" font-size="14.00">updated_at :timestamp without time zone</text>
</g>
<!-- Watching -->
<g id="node3" class="node"><title>Watching</title>
<path fill="none" stroke="black" d="M274,-160.5C274,-160.5 494,-160.5 494,-160.5 500,-160.5 506,-166.5 506,-172.5 506,-172.5 506,-299.5 506,-299.5 506,-305.5 500,-311.5 494,-311.5 494,-311.5 274,-311.5 274,-311.5 268,-311.5 262,-305.5 262,-299.5 262,-299.5 262,-172.5 262,-172.5 262,-166.5 268,-160.5 274,-160.5"/>
<text text-anchor="middle" x="384" y="-296.3" font-family="Times,serif" font-size="14.00">Watching</text>
<polyline fill="none" stroke="black" points="262,-288.5 506,-288.5 "/>
<text text-anchor="start" x="270" y="-273.3" font-family="Times,serif" font-size="14.00">id :integer</text>
<text text-anchor="start" x="270" y="-258.3" font-family="Times,serif" font-size="14.00">user_id :integer</text>
<text text-anchor="start" x="270" y="-243.3" font-family="Times,serif" font-size="14.00">film_id :integer</text>
<text text-anchor="start" x="270" y="-228.3" font-family="Times,serif" font-size="14.00">start :date</text>
<text text-anchor="start" x="270" y="-213.3" font-family="Times,serif" font-size="14.00">finish :date</text>
<text text-anchor="start" x="270" y="-198.3" font-family="Times,serif" font-size="14.00">rate :character varying</text>
<text text-anchor="start" x="270" y="-183.3" font-family="Times,serif" font-size="14.00">created_at :timestamp without time zone</text>
<text text-anchor="start" x="270" y="-168.3" font-family="Times,serif" font-size="14.00">updated_at :timestamp without time zone</text>
</g>
<!-- User -->
<g id="node4" class="node"><title>User</title>
<path fill="none" stroke="black" d="M625,-364.5C625,-364.5 845,-364.5 845,-364.5 851,-364.5 857,-370.5 857,-376.5 857,-376.5 857,-473.5 857,-473.5 857,-479.5 851,-485.5 845,-485.5 845,-485.5 625,-485.5 625,-485.5 619,-485.5 613,-479.5 613,-473.5 613,-473.5 613,-376.5 613,-376.5 613,-370.5 619,-364.5 625,-364.5"/>
<text text-anchor="middle" x="735" y="-470.3" font-family="Times,serif" font-size="14.00">User</text>
<polyline fill="none" stroke="black" points="613,-462.5 857,-462.5 "/>
<text text-anchor="start" x="621" y="-447.3" font-family="Times,serif" font-size="14.00">id :integer</text>
<text text-anchor="start" x="621" y="-432.3" font-family="Times,serif" font-size="14.00">email :character varying</text>
<text text-anchor="start" x="621" y="-417.3" font-family="Times,serif" font-size="14.00">crypted_password :character varying</text>
<text text-anchor="start" x="621" y="-402.3" font-family="Times,serif" font-size="14.00">salt :character varying</text>
<text text-anchor="start" x="621" y="-387.3" font-family="Times,serif" font-size="14.00">created_at :timestamp without time zone</text>
<text text-anchor="start" x="621" y="-372.3" font-family="Times,serif" font-size="14.00">updated_at :timestamp without time zone</text>
</g>
<!-- User&#45;&gt;Reading -->
<g id="edge4" class="edge"><title>User&#45;&gt;Reading</title>
<path fill="none" stroke="#58d6ea" d="M605.142,-364.641C604.427,-364.424 603.713,-364.21 603,-364 452.172,-319.474 401.586,-363.515 253,-312 249.448,-310.769 245.883,-309.44 242.318,-308.028"/>
<ellipse fill="none" stroke="#58d6ea" cx="609.022" cy="-365.867" rx="4.00001" ry="4.00001"/>
<polygon fill="#58d6ea" stroke="#58d6ea" points="242.121,-307.947 234.614,-299.954 237.504,-306.028 232.887,-304.109 232.887,-304.109 232.887,-304.109 237.504,-306.028 231.16,-308.265 242.121,-307.947 242.121,-307.947"/>
</g>
<!-- User&#45;&gt;Watching -->
<g id="edge5" class="edge"><title>User&#45;&gt;Watching</title>
<path fill="none" stroke="#6709e1" d="M608.087,-360.727C579.85,-346.311 550.003,-330.81 515.222,-312.085"/>
<ellipse fill="none" stroke="#6709e1" cx="611.852" cy="-362.646" rx="4.00002" ry="4.00002"/>
<polygon fill="#6709e1" stroke="#6709e1" points="515.071,-312.004 508.409,-303.294 510.671,-309.629 506.271,-307.254 506.271,-307.254 506.271,-307.254 510.671,-309.629 504.134,-311.214 515.071,-312.004 515.071,-312.004"/>
</g>
<!-- Film -->
<g id="node5" class="node"><title>Film</title>
<path fill="none" stroke="black" d="M536,-160.5C536,-160.5 756,-160.5 756,-160.5 762,-160.5 768,-166.5 768,-172.5 768,-172.5 768,-299.5 768,-299.5 768,-305.5 762,-311.5 756,-311.5 756,-311.5 536,-311.5 536,-311.5 530,-311.5 524,-305.5 524,-299.5 524,-299.5 524,-172.5 524,-172.5 524,-166.5 530,-160.5 536,-160.5"/>
<text text-anchor="middle" x="646" y="-296.3" font-family="Times,serif" font-size="14.00">Film</text>
<polyline fill="none" stroke="black" points="524,-288.5 768,-288.5 "/>
<text text-anchor="start" x="532" y="-273.3" font-family="Times,serif" font-size="14.00">id :integer</text>
<text text-anchor="start" x="532" y="-258.3" font-family="Times,serif" font-size="14.00">name_rus :character varying</text>
<text text-anchor="start" x="532" y="-243.3" font-family="Times,serif" font-size="14.00">name_eng :character varying</text>
<text text-anchor="start" x="532" y="-228.3" font-family="Times,serif" font-size="14.00">seria :boolean</text>
<text text-anchor="start" x="532" y="-213.3" font-family="Times,serif" font-size="14.00">imdb :integer</text>
<text text-anchor="start" x="532" y="-198.3" font-family="Times,serif" font-size="14.00">tomatoes :character varying</text>
<text text-anchor="start" x="532" y="-183.3" font-family="Times,serif" font-size="14.00">created_at :timestamp without time zone</text>
<text text-anchor="start" x="532" y="-168.3" font-family="Times,serif" font-size="14.00">updated_at :timestamp without time zone</text>
</g>
<!-- User&#45;&gt;Film -->
<g id="edge3" class="edge"><title>User&#45;&gt;Film</title>
<path fill="none" stroke="#51b4da" d="M637.095,-356.397C634.84,-353.054 632.794,-349.588 631,-346 627.235,-338.469 625.21,-330.3 624.44,-321.936"/>
<polygon fill="#51b4da" stroke="#51b4da" points="637.125,-356.438 639.497,-367.144 640.115,-360.446 643.104,-364.454 643.104,-364.454 643.104,-364.454 640.115,-360.446 646.711,-361.764 637.125,-356.438 637.125,-356.438"/>
<polygon fill="#51b4da" stroke="#51b4da" points="624.43,-321.661 628.586,-311.513 624.259,-316.664 624.088,-311.667 624.088,-311.667 624.088,-311.667 624.259,-316.664 619.591,-311.821 624.43,-321.661 624.43,-321.661"/>
<text text-anchor="middle" x="672" y="-334.3" font-family="Times,serif" font-size="14.00">intended_films</text>
</g>
<!-- User&#45;&gt;Film -->
<g id="edge7" class="edge"><title>User&#45;&gt;Film</title>
<path fill="none" stroke="#2a3af2" d="M721.98,-354.329C719.463,-345.964 716.493,-337.675 713,-330 711.555,-326.825 709.993,-323.648 708.338,-320.486"/>
<polygon fill="#2a3af2" stroke="#2a3af2" points="722.034,-354.523 720.399,-365.366 723.383,-359.337 724.732,-364.152 724.732,-364.152 724.732,-364.152 723.383,-359.337 729.065,-362.938 722.034,-354.523 722.034,-354.523"/>
<polygon fill="#2a3af2" stroke="#2a3af2" points="708.278,-320.376 707.385,-309.447 705.862,-315.999 703.446,-311.622 703.446,-311.622 703.446,-311.622 705.862,-315.999 699.506,-313.796 708.278,-320.376 708.278,-320.376"/>
<text text-anchor="middle" x="742" y="-334.3" font-family="Times,serif" font-size="14.00">watched</text>
</g>
<!-- Intent -->
<g id="node6" class="node"><title>Intent</title>
<path fill="none" stroke="black" d="M686,-0.5C686,-0.5 906,-0.5 906,-0.5 912,-0.5 918,-6.5 918,-12.5 918,-12.5 918,-109.5 918,-109.5 918,-115.5 912,-121.5 906,-121.5 906,-121.5 686,-121.5 686,-121.5 680,-121.5 674,-115.5 674,-109.5 674,-109.5 674,-12.5 674,-12.5 674,-6.5 680,-0.5 686,-0.5"/>
<text text-anchor="middle" x="796" y="-106.3" font-family="Times,serif" font-size="14.00">Intent</text>
<polyline fill="none" stroke="black" points="674,-98.5 918,-98.5 "/>
<text text-anchor="start" x="682" y="-83.3" font-family="Times,serif" font-size="14.00">id :integer</text>
<text text-anchor="start" x="682" y="-68.3" font-family="Times,serif" font-size="14.00">user_id :integer</text>
<text text-anchor="start" x="682" y="-53.3" font-family="Times,serif" font-size="14.00">intended_type :character varying</text>
<text text-anchor="start" x="682" y="-38.3" font-family="Times,serif" font-size="14.00">intended_id :integer</text>
<text text-anchor="start" x="682" y="-23.3" font-family="Times,serif" font-size="14.00">created_at :timestamp without time zone</text>
<text text-anchor="start" x="682" y="-8.3" font-family="Times,serif" font-size="14.00">updated_at :timestamp without time zone</text>
</g>
<!-- User&#45;&gt;Intent -->
<g id="edge1" class="edge"><title>User&#45;&gt;Intent</title>
<path fill="none" stroke="#9fb128" d="M765.159,-356.874C766.519,-353.22 767.81,-349.579 769,-346 792.408,-275.618 797.669,-190.393 798.004,-131.776"/>
<ellipse fill="none" stroke="#9fb128" cx="763.713" cy="-360.646" rx="4.00001" ry="4.00001"/>
<polygon fill="#9fb128" stroke="#9fb128" points="798.004,-131.514 802.514,-121.519 798.009,-126.514 798.014,-121.514 798.014,-121.514 798.014,-121.514 798.009,-126.514 793.514,-121.51 798.004,-131.514 798.004,-131.514"/>
</g>
<!-- Book -->
<g id="node7" class="node"><title>Book</title>
<path fill="none" stroke="black" d="M836,-175.5C836,-175.5 1056,-175.5 1056,-175.5 1062,-175.5 1068,-181.5 1068,-187.5 1068,-187.5 1068,-284.5 1068,-284.5 1068,-290.5 1062,-296.5 1056,-296.5 1056,-296.5 836,-296.5 836,-296.5 830,-296.5 824,-290.5 824,-284.5 824,-284.5 824,-187.5 824,-187.5 824,-181.5 830,-175.5 836,-175.5"/>
<text text-anchor="middle" x="946" y="-281.3" font-family="Times,serif" font-size="14.00">Book</text>
<polyline fill="none" stroke="black" points="824,-273.5 1068,-273.5 "/>
<text text-anchor="start" x="832" y="-258.3" font-family="Times,serif" font-size="14.00">id :integer</text>
<text text-anchor="start" x="832" y="-243.3" font-family="Times,serif" font-size="14.00">title :character varying</text>
<text text-anchor="start" x="832" y="-228.3" font-family="Times,serif" font-size="14.00">author :character varying</text>
<text text-anchor="start" x="832" y="-213.3" font-family="Times,serif" font-size="14.00">short :boolean</text>
<text text-anchor="start" x="832" y="-198.3" font-family="Times,serif" font-size="14.00">created_at :timestamp without time zone</text>
<text text-anchor="start" x="832" y="-183.3" font-family="Times,serif" font-size="14.00">updated_at :timestamp without time zone</text>
</g>
<!-- User&#45;&gt;Book -->
<g id="edge2" class="edge"><title>User&#45;&gt;Book</title>
<path fill="none" stroke="#a79382" d="M805.8,-357.314C815.868,-348.063 826.148,-338.741 836,-330 845.935,-321.186 856.482,-312.026 866.96,-303.044"/>
<polygon fill="#a79382" stroke="#a79382" points="805.505,-357.586 795.102,-361.055 801.828,-360.975 798.152,-364.364 798.152,-364.364 798.152,-364.364 801.828,-360.975 801.202,-367.673 805.505,-357.586 805.505,-357.586"/>
<polygon fill="#a79382" stroke="#a79382" points="866.966,-303.039 877.491,-299.963 870.766,-299.79 874.567,-296.542 874.567,-296.542 874.567,-296.542 870.766,-299.79 871.644,-293.121 866.966,-303.039 866.966,-303.039"/>
<text text-anchor="middle" x="879" y="-334.3" font-family="Times,serif" font-size="14.00">intended_books</text>
</g>
<!-- User&#45;&gt;Book -->
<g id="edge6" class="edge"><title>User&#45;&gt;Book</title>
<path fill="none" stroke="#8c7ed7" d="M866.725,-364.22C893.259,-356.422 906.193,-363.373 922,-346 931.96,-335.054 938.113,-320.938 941.844,-306.517"/>
<polygon fill="#8c7ed7" stroke="#8c7ed7" points="866.643,-364.248 855.725,-363.229 861.912,-365.867 857.182,-367.486 857.182,-367.486 857.182,-367.486 861.912,-365.867 858.639,-371.744 866.643,-364.248 866.643,-364.248"/>
<polygon fill="#8c7ed7" stroke="#8c7ed7" points="941.896,-306.283 948.451,-297.492 942.977,-301.401 944.058,-296.519 944.058,-296.519 944.058,-296.519 942.977,-301.401 939.664,-295.547 941.896,-306.283 941.896,-306.283"/>
<text text-anchor="middle" x="945" y="-334.3" font-family="Times,serif" font-size="14.00">read</text>
</g>
<!-- Film&#45;&gt;Intent -->
<g id="edge8" class="edge"><title>Film&#45;&gt;Intent</title>
<path fill="none" stroke="#e88f3e" d="M715.999,-154.268C723.245,-145.911 730.554,-137.481 737.653,-129.294"/>
<ellipse fill="none" stroke="#e88f3e" cx="713.322" cy="-157.355" rx="4.00002" ry="4.00002"/>
<polygon fill="#e88f3e" stroke="#e88f3e" points="737.835,-129.084 747.786,-124.476 741.11,-125.306 744.386,-121.528 744.386,-121.528 744.386,-121.528 741.11,-125.306 740.986,-118.58 737.835,-129.084 737.835,-129.084"/>
</g>
<!-- Book&#45;&gt;Intent -->
<g id="edge9" class="edge"><title>Book&#45;&gt;Intent</title>
<path fill="none" stroke="#7e6fc0" d="M889.022,-169.285C877.676,-156.199 865.745,-142.439 854.353,-129.3"/>
<ellipse fill="none" stroke="#7e6fc0" cx="891.758" cy="-172.441" rx="4.00002" ry="4.00002"/>
<polygon fill="#7e6fc0" stroke="#7e6fc0" points="854.268,-129.202 851.117,-118.699 850.992,-125.424 847.717,-121.647 847.717,-121.647 847.717,-121.647 850.992,-125.424 844.317,-124.594 854.268,-129.202 854.268,-129.202"/>
</g>
<!-- ApplicationRecord -->
<g id="node8" class="node"><title>ApplicationRecord</title>
<ellipse fill="none" stroke="black" cx="952" cy="-425" rx="77.0154" ry="18"/>
<text text-anchor="middle" x="952" y="-421.3" font-family="Times,serif" font-size="14.00">ApplicationRecord</text>
</g>
</g>
</svg>
